<svg id="Layer_1" data-name="Layer 1" xmlns="http://www.w3.org/2000/svg" viewBox="0 0 192.05 202"><defs><style>.cls-1{fill:#231f20;stroke:#231f20;stroke-miterlimit:10;stroke-width:2px;}</style></defs><title>NameLogo</title><path class="cls-1" d="M236.5,163.65h0A75.2,75.2,0,0,0,245,128.85c0-42-34.23-76-76.47-76A76.18,76.18,0,0,0,150.39,55h0a50,50,0,0,0-70.83,45.46v15.94q-1.69,1.55-3.28,3.2a108.85,108.85,0,0,1-2.23-16,101.38,101.38,0,0,1,1.69-27,104.65,104.65,0,0,0-19.34,27c0,.46.05.93.08,1.4a97.09,97.09,0,0,0,7.28,31.88,75.63,75.63,0,0,0,12.86,88.39q3.31,3.27,6.92,6.25c.22.19.45.37.68.55a77,77,0,0,0,66.12,13.87l0,0a50,50,0,0,0,70.85-45.45V183.93c1.09-1,2.14-2.09,3.17-3.18A107.55,107.55,0,0,1,227.22,197a103.06,103.06,0,0,1-.53,25.55,105,105,0,0,0,18.15-26.28c0-.39-.06-.78-.1-1.18A97.31,97.31,0,0,0,236.5,163.65Zm-10.88-15.59A58.58,58.58,0,0,1,221.2,158v-29.9c-.42-9.14-2.07-16.44-7-21.89-2.69-3-5.8-5.15-9.67-5.69v100a32.35,32.35,0,0,1-9.92,23.3,33.22,33.22,0,0,1-15,8.38c-.55.15-1.11.28-1.67.39a34,34,0,0,1-6.74.67,33.89,33.89,0,0,1-17.9-5.13,30.25,30.25,0,0,1-2.79-2,32.46,32.46,0,0,1-12.63-25.66v-100a8.34,8.34,0,0,0-16.67,0v100a49.79,49.79,0,0,0,11.31,31.67h-1.1a60.1,60.1,0,0,1-60.29-59.9,59.48,59.48,0,0,1,8.4-30.51l.31,14.85.5,20.88a41.63,41.63,0,0,0,.59,4.38c1.25,6.86,4.94,15.08,13.24,18.18l2,.44v-100c0-.45,0-.9,0-1.34V99c0-.46.06-.93.1-1.38,0-.21,0-.43.06-.64s.05-.42.08-.63,0-.24.05-.36,0-.34.07-.5.07-.45.11-.67c.08-.46.17-.92.28-1.37s.21-.9.33-1.35.24-.86.38-1.28a.14.14,0,0,1,0-.07c.13-.43.28-.85.43-1.27.08-.22.16-.44.25-.65s.16-.42.25-.63c.16-.4.34-.8.52-1.19l0-.06c.19-.42.39-.82.6-1.23a.61.61,0,0,0,.07-.14c.17-.32.34-.63.52-.94,0,0,0,0,0,0,.48-.84,1-1.66,1.53-2.44.25-.36.5-.71.76-1s.55-.72.84-1.07.56-.68.85-1l0,0c.29-.34.6-.67.92-1s.58-.59.88-.88c0,0,.11-.1.16-.16l.65-.59c.52-.47,1-.92,1.6-1.35.26-.21.52-.42.79-.61l.55-.4c.18-.14.37-.27.56-.39q.56-.39,1.14-.75h0c.38-.25.78-.49,1.18-.71l.19-.11.51-.28.51-.27c.37-.2.75-.38,1.13-.56l.11,0c.42-.2.84-.38,1.26-.56l.11,0,1.06-.41.05,0c.5-.19,1-.36,1.51-.52.85-.28,1.73-.52,2.61-.72l.27-.06.68-.15.94-.18c.33,0,.65-.11,1-.15l1-.13c.66-.08,1.31-.13,2-.17.22,0,.45,0,.68,0q.66,0,1.32,0a34.92,34.92,0,0,1,3.56.18c.41,0,.81.09,1.21.15s.8.12,1.19.19.79.14,1.18.23.56.12.84.19l.32.07.14,0h.06l.11,0,.93.26.1,0c.32.09.63.18.94.29l.9.3q1.26.45,2.46,1c.33.14.66.3,1,.46s.7.34,1,.53.67.36,1,.55l.79.47c.27.16.53.33.79.51s.51.33.76.51.51.35.75.54l.61.45.13.1a31.72,31.72,0,0,1,2.64,2.28,32.24,32.24,0,0,1,10.06,23.38v100a8.15,8.15,0,1,0,16.29,0v-100q0-.87,0-1.74c0-.58,0-1.15-.09-1.72l-.09-1.15c0-.37-.07-.75-.12-1.13s-.09-.75-.14-1.13-.11-.74-.17-1.11-.09-.53-.14-.8-.12-.69-.19-1-.14-.71-.22-1.06l-.18-.78L178,88.1c-.09-.36-.19-.72-.29-1.08s-.2-.71-.31-1.06c-.15-.51-.31-1-.48-1.5,0-.17-.11-.33-.17-.5l-.18-.5-.18-.49c-.06-.17-.12-.33-.19-.5-.12-.33-.25-.66-.39-1s-.27-.65-.41-1l-.21-.48c-.08-.16-.15-.32-.22-.48-.22-.48-.45-1-.69-1.43s-.43-.86-.66-1.28l-.07-.13c-.28-.52-.58-1-.88-1.55S172.2,74.4,172,74s-.42-.67-.64-1c-.44-.66-.89-1.31-1.35-1.94-.23-.32-.47-.64-.71-1l-.36-.47-.24-.3-.13-.17-.2-.25h.17a60.09,60.09,0,0,1,60.28,59.9A59.3,59.3,0,0,1,225.62,148.06Z" transform="translate(-53.93 -49.47)"/><path class="cls-1" d="M224.47,223.62" transform="translate(-53.93 -49.47)"/></svg>